# 3ds Max Wavefront OBJ Exporter v0.97b - (c)2007 guruware
# File Created: 31.05.2016 00:13:55

mtllib Plus.mtl

#
# object Box001
#

v  -10.0000 -30.0000 10.0000
v  -10.0000 -30.0000 -10.0000
v  10.0000 -30.0000 -10.0000
v  10.0000 -30.0000 10.0000
v  -10.0000 30.0000 10.0000
v  10.0000 30.0000 10.0000
v  10.0000 30.0000 -10.0000
v  -10.0000 30.0000 -10.0000
v  -10.0000 -10.0000 30.0000
v  10.0000 -10.0000 30.0000
v  10.0000 10.0000 30.0000
v  -10.0000 10.0000 30.0000
v  30.0000 -10.0000 10.0000
v  30.0000 -10.0000 -10.0000
v  30.0000 10.0000 -10.0000
v  30.0000 10.0000 10.0000
v  10.0000 -10.0000 -30.0000
v  -10.0000 -10.0000 -30.0000
v  -10.0000 10.0000 -30.0000
v  10.0000 10.0000 -30.0000
v  -30.0000 -10.0000 -10.0000
v  -30.0000 -10.0000 10.0000
v  -30.0000 10.0000 10.0000
v  -30.0000 10.0000 -10.0000
v  -10.0000 -10.0000 10.0000
v  -10.0000 -10.0000 -10.0000
v  10.0000 -10.0000 -10.0000
v  10.0000 -10.0000 10.0000
v  -10.0000 10.0000 10.0000
v  10.0000 10.0000 10.0000
v  10.0000 10.0000 -10.0000
v  -10.0000 10.0000 -10.0000
# 32 vertices

vn 0.0000 -1.0000 -0.0000
vn 0.0000 1.0000 -0.0000
vn 0.0000 0.0000 1.0000
vn 1.0000 0.0000 -0.0000
vn 0.0000 0.0000 -1.0000
vn -1.0000 0.0000 -0.0000
# 6 vertex normals

vt 0.0000 0.0000 0.0000
vt 1.0000 0.0000 0.0000
vt 1.0000 1.0000 0.0000
vt 0.0000 1.0000 0.0000
# 4 texture coords

g Box001
usemtl wire_027177027
s 2
f 1/1/1 2/2/1 3/3/1 4/4/1 
s 4
f 5/1/2 6/2/2 7/3/2 8/4/2 
s 8
f 9/1/3 10/2/3 11/3/3 12/4/3 
s 16
f 13/1/4 14/2/4 15/3/4 16/4/4 
s 32
f 17/1/5 18/2/5 19/3/5 20/4/5 
s 64
f 21/1/6 22/2/6 23/3/6 24/4/6 
s off
f 25/1/6 26/2/6 2/3/6 1/4/6 
f 26/1/5 27/2/5 3/3/5 2/4/5 
f 27/1/4 28/2/4 4/3/4 3/4/4 
f 28/1/3 25/2/3 1/3/3 4/4/3 
f 29/1/3 30/2/3 6/3/3 5/4/3 
f 30/1/4 31/2/4 7/3/4 6/4/4 
f 31/1/5 32/2/5 8/3/5 7/4/5 
f 32/1/6 29/2/6 5/3/6 8/4/6 
f 28/1/1 27/2/1 14/3/1 13/4/1 
f 27/1/5 31/2/5 15/3/5 14/4/5 
f 31/1/2 30/2/2 16/3/2 15/4/2 
f 30/1/3 28/2/3 13/3/3 16/4/3 
f 26/1/1 25/2/1 22/3/1 21/4/1 
f 25/1/3 29/2/3 23/3/3 22/4/3 
f 29/1/2 32/2/2 24/3/2 23/4/2 
f 32/1/5 26/2/5 21/3/5 24/4/5 
f 25/1/1 28/2/1 10/3/1 9/4/1 
f 28/1/4 30/2/4 11/3/4 10/4/4 
f 30/1/2 29/2/2 12/3/2 11/4/2 
f 29/1/6 25/2/6 9/3/6 12/4/6 
f 27/1/1 26/2/1 18/3/1 17/4/1 
f 26/1/6 32/2/6 19/3/6 18/4/6 
f 32/1/2 31/2/2 20/3/2 19/4/2 
f 31/1/4 27/2/4 17/3/4 20/4/4 
# 30 polygons

